# xmcd
#
# Track frame offsets:
#  150
#  23827
#  43575
#  78047
#  93553
#  123592
#  157265
#  182364
#  207700
#
# Disc length: 2990 seconds
#
# Revision: 1
# Processed by: cddbd v1.5.1PL2 Copyright (c) Steve Scherf et al.
# Submitted via: Collectorz.com_Music_Collector 6.11
#
DISCID=730bac09
DTITLE=Ida McBeth - Special Request
DYEAR=1998
DGENRE=Jazz
TTITLE0=Kissing My Love
TTITLE1=Who Is She (And What Is She To Your)
TTITLE2=I Can't Make You Love Me
TTITLE3=The Song Is You
TTITLE4=Voo Doo Woman
TTITLE5=You And Me Against The World
TTITLE6=I'm Tired Of That
TTITLE7=Save Your Love For Me
TTITLE8=Never Make Your Move Too Soon
EXTD=
EXTT0=
EXTT1=
EXTT2=
EXTT3=
EXTT4=
EXTT5=
EXTT6=
EXTT7=
EXTT8=
PLAYORDER=
